HIERARCHY
ROOT hip
{
  OFFSET 0 0 0
  CHANNELS 6 Xposition Yposition Zposition Zrotation Yrotation Xrotation
  JOINT abdomen
  {
    OFFSET 0 20.6881 -0.73152
    CHANNELS 3 Zrotation Xrotation Yrotation
    JOINT chest
    {
      OFFSET 0 11.7043 -0.48768
      CHANNELS 3 Zrotation Xrotation Yrotation
      JOINT neck
      {
        OFFSET 0 22.1894 -2.19456
        CHANNELS 3 Zrotation Xrotation Yrotation
        JOINT head
        {
          OFFSET -0.24384 7.07133 1.2192
          CHANNELS 3 Zrotation Xrotation Yrotation
          JOINT leftEye
          {
            OFFSET 4.14528 8.04674 8.04672
            CHANNELS 3 Zrotation Xrotation Yrotation
            End Site
            {
              OFFSET 1 0 0
            }
          }
          JOINT rightEye
          {
            OFFSET -3.6576 8.04674 8.04672
            CHANNELS 3 Zrotation Xrotation Yrotation
            End Site
            {
              OFFSET 1 0 0
            }
          }
        }
      }
      JOINT rCollar
      {
        OFFSET -2.68224 19.2634 -4.8768
        CHANNELS 3 Zrotation Xrotation Yrotation
        JOINT rShldr
        {
          OFFSET -8.77824 -1.95073 1.46304
          CHANNELS 3 Zrotation Xrotation Yrotation
          JOINT rForeArm
          {
            OFFSET -28.1742 -1.7115 0.48768
            CHANNELS 3 Zrotation Xrotation Yrotation
            JOINT rHand
            {
              OFFSET -22.5879 0.773209 7.07136
              CHANNELS 3 Zrotation Xrotation Yrotation
              JOINT rThumb1
              {
                OFFSET -1.2192 -0.487915 3.41376
                CHANNELS 3 Zrotation Xrotation Yrotation
                JOINT rThumb2
                {
                  OFFSET -3.37035 -0.52449 3.41376
                  CHANNELS 3 Zrotation Xrotation Yrotation
                  End Site
                  {
                    OFFSET -1.78271 -1.18214 1.43049
                  }
                }
              }
              JOINT rIndex1
              {
                OFFSET -7.75947 0.938293 5.60832
                CHANNELS 3 Zrotation Xrotation Yrotation
                JOINT rIndex2
                {
                  OFFSET -2.54057 -0.884171 1.56538
                  CHANNELS 3 Zrotation Xrotation Yrotation
                  End Site
                  {
                    OFFSET -1.62519 -0.234802 1.16502
                  }
                }
              }
              JOINT rMid1
              {
                OFFSET -8.24714 1.18213 3.41376
                CHANNELS 3 Zrotation Xrotation Yrotation
                JOINT rMid2
                {
                  OFFSET -3.10165 -0.590103 1.0647
                  CHANNELS 3 Zrotation Xrotation Yrotation
                  End Site
                  {
                    OFFSET -2.48547 -0.328903 0.83742
                  }
                }
              }
              JOINT rRing1
              {
                OFFSET -8.82822 0.546677 1.51678
                CHANNELS 3 Zrotation Xrotation Yrotation
                JOINT rRing2
                {
                  OFFSET -2.60934 -0.819778 -0.0198488
                  CHANNELS 3 Zrotation Xrotation Yrotation
                  End Site
                  {
                    OFFSET -2.33842 -0.294052 0.168128
                  }
                }
              }
              JOINT rPinky1
              {
                OFFSET -8.27202 -0.0477905 -0.4584
                CHANNELS 3 Zrotation Xrotation Yrotation
                JOINT rPinky2
                {
                  OFFSET -1.82734 -0.647385 -0.700984
                  CHANNELS 3 Zrotation Xrotation Yrotation
                  End Site
                  {
                    OFFSET -1.69225 -0.51767 -0.607171
                  }
                }
              }
            }
          }
        }
      }
      JOINT lCollar
      {
        OFFSET 2.68224 19.2634 -4.8768
        CHANNELS 3 Zrotation Xrotation Yrotation
        JOINT lShldr
        {
          OFFSET 8.77824 -1.95073 1.46304
          CHANNELS 3 Zrotation Xrotation Yrotation
          JOINT lForeArm
          {
            OFFSET 28.1742 -1.7115 0.48768
            CHANNELS 3 Zrotation Xrotation Yrotation
            JOINT lHand
            {
              OFFSET 22.5879 0.773209 7.07136
              CHANNELS 3 Zrotation Xrotation Yrotation
              JOINT lThumb1
              {
                OFFSET 1.2192 -0.487915 3.41376
                CHANNELS 3 Zrotation Xrotation Yrotation
                JOINT lThumb2
                {
                  OFFSET 3.37035 -0.52449 3.41376
                  CHANNELS 3 Zrotation Xrotation Yrotation
                  End Site
                  {
                    OFFSET 1.78271 -1.18214 1.43049
                  }
                }
              }
              JOINT lIndex1
              {
                OFFSET 7.75947 0.938293 5.60832
                CHANNELS 3 Zrotation Xrotation Yrotation
                JOINT lIndex2
                {
                  OFFSET 2.54057 -0.884171 1.56538
                  CHANNELS 3 Zrotation Xrotation Yrotation
                  End Site
                  {
                    OFFSET 1.62519 -0.234802 1.16502
                  }
                }
              }
              JOINT lMid1
              {
                OFFSET 8.24714 1.18213 3.41376
                CHANNELS 3 Zrotation Xrotation Yrotation
                JOINT lMid2
                {
                  OFFSET 3.10165 -0.590103 1.0647
                  CHANNELS 3 Zrotation Xrotation Yrotation
                  End Site
                  {
                    OFFSET 2.48547 -0.328903 0.83742
                  }
                }
              }
              JOINT lRing1
              {
                OFFSET 8.82822 0.546677 1.51678
                CHANNELS 3 Zrotation Xrotation Yrotation
                JOINT lRing2
                {
                  OFFSET 2.60934 -0.819778 -0.0198488
                  CHANNELS 3 Zrotation Xrotation Yrotation
                  End Site
                  {
                    OFFSET 2.33842 -0.294052 0.168128
                  }
                }
              }
              JOINT lPinky1
              {
                OFFSET 8.27202 -0.0477905 -0.4584
                CHANNELS 3 Zrotation Xrotation Yrotation
                JOINT lPinky2
                {
                  OFFSET 1.82734 -0.647385 -0.700984
                  CHANNELS 3 Zrotation Xrotation Yrotation
                  End Site
                  {
                    OFFSET 1.69225 -0.51767 -0.607171
                  }
                }
              }
            }
          }
        }
      }
    }
  }
  JOINT rButtock
  {
    OFFSET -8.77824 4.35084 1.2192
    CHANNELS 3 Zrotation Xrotation Yrotation
    JOINT rThigh
    {
      OFFSET 0 -1.70687 -2.19456
      CHANNELS 3 Zrotation Xrotation Yrotation
      JOINT rShin
      {
        OFFSET 0 -36.8199 0.73152
        CHANNELS 3 Zrotation Xrotation Yrotation
        JOINT rFoot
        {
          OFFSET 0.73152 -45.1104 -5.12064
          CHANNELS 3 Zrotation Xrotation Yrotation
          End Site
          {
            OFFSET -1.1221 -3.69964 12.103
          }
        }
      }
    }
  }
  JOINT lButtock
  {
    OFFSET 8.77824 4.35084 1.2192
    CHANNELS 3 Zrotation Xrotation Yrotation
    JOINT lThigh
    {
      OFFSET 0 -1.70687 -2.19456
      CHANNELS 3 Zrotation Xrotation Yrotation
      JOINT lShin
      {
        OFFSET 0 -36.8199 0.73152
        CHANNELS 3 Zrotation Xrotation Yrotation
        JOINT lFoot
        {
          OFFSET -0.73152 -45.1104 -5.12064
          CHANNELS 3 Zrotation Xrotation Yrotation
          End Site
          {
            OFFSET 1.1221 -3.69964 12.103
          }
        }
      }
    }
  }
}
MOTION
Frames:	6
Frame Time:	0.03333
4.404899842302257 86.8619978427887 55.63159976645693 67.40029907226562 -39.255794525146484 -53.400394439697266 -32.388397216796875 24.403703689575195 15.62088394165039 -5.144997596740723 -13.686198234558105 1.2303276062011719 -1.5907011032104492 9.709264755249023 7.5323486328125 -15.502809524536133 -15.53560733795166 12.73640251159668 -0.0 0.0 -0.0 -0.0 0.0 -0.0 -0.0 0.0 -0.0 14.060998916625977 31.646596908569336 34.35569763183594 -27.61029624938965 -28.626901626586914 65.00580596923828 -0.12603868544101715 10.071107864379883 1.4303312301635742 -0.0 0.0 -0.0 -0.0 0.0 -0.0 -0.0 0.0 -0.0 7.730876445770264 5.474895000457764 0.41732463240623474 -0.0 0.0 -0.0 2.9054994583129883 0.9650753736495972 0.10300876200199127 -0.0 0.0 -0.0 10.278595924377441 0.7317469120025635 0.026285577565431595 -0.0 0.0 -0.0 2.221662759780884 -0.7335850596427917 -0.20831839740276337 -0.0 0.0 -0.0 -53.512393951416016 -14.28230094909668 8.634672164916992 25.535198211669922 -22.29820442199707 -54.85379409790039 0.9954431056976318 -27.400331497192383 4.165272235870361 -0.0 0.0 -0.0 -0.0 0.0 -0.0 -0.0 0.0 -0.0 -7.730876445770264 5.474895000457764 -0.41732463240623474 -0.0 0.0 -0.0 -2.9054994583129883 0.9650753736495972 -0.10300876200199127 -0.0 0.0 -0.0 -10.278595924377441 0.7317469120025635 -0.026285577565431595 -0.0 0.0 -0.0 -2.221662759780884 -0.7335850596427917 0.20831839740276337 -0.0 0.0 -0.0 -46.38079833984375 -6.575850486755371 -15.556784629821777 0.13026916980743408 3.9752135276794434 2.2834320068359375 2.8157074451446533 3.3255538940429688 -30.897199630737305 -0.0 0.0 -0.0 79.23649597167969 -25.325288772583008 27.59001350402832 0.11036331206560135 -0.1700318306684494 0.7475919127464294 -1.1858831644058228 -0.7974302172660828 30.88520622253418
4.986099844063574 86.75209879875183 58.050599699163286 68.7621078491211 -39.494285583496094 -54.10439682006836 -31.64279556274414 24.04630470275879 14.588191986083984 -5.122756481170654 -13.151795387268066 1.0227752923965454 -1.0619816780090332 9.595841407775879 7.519527435302734 -17.272993087768555 -15.607995986938477 12.415401458740234 -0.0 0.0 -0.0 -0.0 0.0 -0.0 -0.0 0.0 -0.0 13.19880485534668 31.856592178344727 34.36880111694336 -27.899198532104492 -30.01240348815918 67.20948791503906 -0.12654808163642883 10.091002464294434 1.4332658052444458 -0.0 0.0 -0.0 -0.0 0.0 -0.0 -0.0 0.0 -0.0 7.730876445770264 5.474895000457764 0.41732463240623474 -0.0 0.0 -0.0 2.9054994583129883 0.9650753736495972 0.10300876200199127 -0.0 0.0 -0.0 10.278595924377441 0.7317469120025635 0.026285577565431595 -0.0 0.0 -0.0 2.221662759780884 -0.7335850596427917 -0.20831839740276337 -0.0 0.0 -0.0 -55.986507415771484 -16.026002883911133 8.986266136169434 26.048999786376953 -23.562095642089844 -56.9109001159668 1.612774133682251 -33.814666748046875 5.385613918304443 -0.0 0.0 -0.0 -0.0 0.0 -0.0 -0.0 0.0 -0.0 -7.730876445770264 5.474895000457764 -0.41732463240623474 -0.0 0.0 -0.0 -2.9054994583129883 0.9650753736495972 -0.10300876200199127 -0.0 0.0 -0.0 -10.278595924377441 0.7317469120025635 -0.026285577565431595 -0.0 0.0 -0.0 -2.221662759780884 -0.7335850596427917 0.20831839740276337 -0.0 0.0 -0.0 -47.88589859008789 -6.5201029777526855 -13.42470932006836 0.1257791668176651 1.9252989292144775 2.081697463989258 1.7648711204528809 2.5442404747009277 -33.55510330200195 -0.0 0.0 -0.0 83.37158203125 -29.591796875 35.760887145996094 0.1956080049276352 10.828392028808594 -0.3997322916984558 -1.0832204818725586 1.1207081079483032 29.4303035736084
5.430799854184443 86.2529993057251 60.76459978266939 72.35310363769531 -40.73288345336914 -55.87321090698242 -29.14729118347168 22.82779884338379 14.297679901123047 -5.7554097175598145 -12.232994079589844 1.2577216625213623 -0.5967236161231995 9.464500427246094 7.6134934425354 -18.071104049682617 -14.782099723815918 12.554993629455566 -0.0 0.0 -0.0 -0.0 0.0 -0.0 -0.0 0.0 -0.0 12.463592529296875 32.5319938659668 34.57370376586914 -28.0651912689209 -31.030607223510742 68.92301177978516 -0.13214798271656036 10.30909538269043 1.4648574590682983 -0.0 0.0 -0.0 -0.0 0.0 -0.0 -0.0 0.0 -0.0 7.730876445770264 5.474895000457764 0.41732463240623474 -0.0 0.0 -0.0 2.9054994583129883 0.9650753736495972 0.10300876200199127 -0.0 0.0 -0.0 10.278595924377441 0.7317469120025635 0.026285577565431595 -0.0 0.0 -0.0 2.221662759780884 -0.7335850596427917 -0.20831839740276337 -0.0 0.0 -0.0 -57.9949951171875 -17.333797454833984 9.184612274169922 26.390304565429688 -24.479610443115234 -58.46879959106445 1.996800184249878 -36.69725799560547 6.015697002410889 -0.0 0.0 -0.0 -0.0 0.0 -0.0 -0.0 0.0 -0.0 -7.730876445770264 5.474895000457764 -0.41732463240623474 -0.0 0.0 -0.0 -2.9054994583129883 0.9650753736495972 -0.10300876200199127 -0.0 0.0 -0.0 -10.278595924377441 0.7317469120025635 -0.026285577565431595 -0.0 0.0 -0.0 -2.221662759780884 -0.7335850596427917 0.20831839740276337 -0.0 0.0 -0.0 -49.02799987792969 -8.353873252868652 -12.376102447509766 0.0658869594335556 1.6744345426559448 2.0552561283111572 0.8759550452232361 1.5972977876663208 -34.809898376464844 -0.0 0.0 -0.0 92.4802017211914 -32.912899017333984 47.890499114990234 0.07304515689611435 27.791187286376953 -1.359774112701416 -0.973665714263916 0.49973469972610474 23.505701065063477
5.504499856579059 85.62520146369934 62.70559970780596 76.62849426269531 -43.20121383666992 -58.76458740234375 -24.864200592041016 20.76150894165039 14.748795509338379 -7.0692596435546875 -10.929183959960938 1.9302606582641602 -0.19588956236839294 9.315144538879395 7.814246654510498 -17.924095153808594 -13.063092231750488 13.156892776489258 -0.0 0.0 -0.0 -0.0 0.0 -0.0 -0.0 0.0 -0.0 11.840999603271484 33.66930389404297 34.9893913269043 -28.173192977905273 -31.767900466918945 70.08099365234375 -0.1432039588689804 10.72540283203125 1.5254496335983276 -0.0 0.0 -0.0 -0.0 0.0 -0.0 -0.0 0.0 -0.0 7.730876445770264 5.474895000457764 0.41732463240623474 -0.0 0.0 -0.0 2.9054994583129883 0.9650753736495972 0.10300876200199127 -0.0 0.0 -0.0 10.278595924377441 0.7317469120025635 0.026285577565431595 -0.0 0.0 -0.0 2.221662759780884 -0.7335850596427917 -0.20831839740276337 -0.0 0.0 -0.0 -59.55400085449219 -18.208105087280273 9.22077465057373 26.616806030273438 -25.132402420043945 -59.491695404052734 1.9148553609848022 -36.06869125366211 5.876710891723633 -0.0 0.0 -0.0 -0.0 0.0 -0.0 -0.0 0.0 -0.0 -7.730876445770264 5.474895000457764 -0.41732463240623474 -0.0 0.0 -0.0 -2.9054994583129883 0.9650753736495972 -0.10300876200199127 -0.0 0.0 -0.0 -10.278595924377441 0.7317469120025635 -0.026285577565431595 -0.0 0.0 -0.0 -2.221662759780884 -0.7335850596427917 0.20831839740276337 -0.0 0.0 -0.0 -49.80780029296875 -12.085599899291992 -12.45158576965332 -0.042190469801425934 3.2229106426239014 2.2030177116394043 0.20106923580169678 0.4563668966293335 -34.67099380493164 -0.0 0.0 -0.0 106.77498626708984 -32.787296295166016 63.301788330078125 0.11635401099920273 50.707401275634766 -2.6577906608581543 -1.861295223236084 -3.07159161567688 13.143110275268555
5.890399861345941 85.28109788894653 64.76959977790102 81.57149505615234 -45.78929901123047 -63.37429428100586 -22.0878849029541 18.90779685974121 14.943184852600098 -7.6496758460998535 -9.784685134887695 2.4294025897979736 0.3129751682281494 9.212076187133789 8.030003547668457 -17.793596267700195 -12.06120491027832 13.682787895202637 -0.0 0.0 -0.0 -0.0 0.0 -0.0 -0.0 0.0 -0.0 11.102497100830078 34.778297424316406 36.14299774169922 -28.185897827148438 -31.868507385253906 70.24298858642578 -0.1337262988090515 10.369964599609375 1.4736034870147705 -0.0 0.0 -0.0 -0.0 0.0 -0.0 -0.0 0.0 -0.0 7.730876445770264 5.474895000457764 0.41732463240623474 -0.0 0.0 -0.0 2.9054994583129883 0.9650753736495972 0.10300876200199127 -0.0 0.0 -0.0 10.278595924377441 0.7317469120025635 0.026285577565431595 -0.0 0.0 -0.0 2.221662759780884 -0.7335850596427917 -0.20831839740276337 -0.0 0.0 -0.0 -60.72090530395508 -18.59820556640625 9.281057357788086 26.710304260253906 -25.41530418395996 -59.958797454833984 1.973756194114685 -36.53063201904297 5.97539758682251 -0.0 0.0 -0.0 -0.0 0.0 -0.0 -0.0 0.0 -0.0 -7.730876445770264 5.474895000457764 -0.41732463240623474 -0.0 0.0 -0.0 -2.9054994583129883 0.9650753736495972 -0.10300876200199127 -0.0 0.0 -0.0 -10.278595924377441 0.7317469120025635 -0.026285577565431595 -0.0 0.0 -0.0 -2.221662759780884 -0.7335850596427917 0.20831839740276337 -0.0 0.0 -0.0 -51.36859893798828 -16.03028678894043 -12.900927543640137 -0.11787537485361099 5.341633319854736 2.226365566253662 0.151649609208107 0.1970645785331726 -34.579200744628906 -0.0 0.0 -0.0 118.30597686767578 -29.536800384521484 75.7041015625 1.296769380569458 70.43130493164062 -4.606949806213379 -2.9599978923797607 -5.718604564666748 6.169306755065918
6.242099861810857 84.67959761619568 66.5305998225449 86.54908752441406 -46.23378372192383 -66.60320281982422 -20.846891403198242 17.261106491088867 14.886104583740234 -7.481957912445068 -8.800008773803711 2.7580342292785645 0.9287140965461731 9.155162811279297 8.260808944702148 -17.65530776977539 -11.771393775939941 14.129495620727539 -0.0 0.0 -0.0 -0.0 0.0 -0.0 -0.0 0.0 -0.0 10.194595336914062 35.81169891357422 38.06050491333008 -28.115808486938477 -31.346004486083984 69.393310546875 -0.105936199426651 9.2427396774292 1.3104915618896484 -0.0 0.0 -0.0 -0.0 0.0 -0.0 -0.0 0.0 -0.0 7.730876445770264 5.474895000457764 0.41732463240623474 -0.0 0.0 -0.0 2.9054994583129883 0.9650753736495972 0.10300876200199127 -0.0 0.0 -0.0 10.278595924377441 0.7317469120025635 0.026285577565431595 -0.0 0.0 -0.0 2.221662759780884 -0.7335850596427917 -0.20831839740276337 -0.0 0.0 -0.0 -61.49679183959961 -18.504098892211914 9.36354923248291 26.690589904785156 -25.354999542236328 -59.85429000854492 2.1838839054107666 -38.08182907104492 6.322120666503906 -0.0 0.0 -0.0 -0.0 0.0 -0.0 -0.0 0.0 -0.0 -7.730876445770264 5.474895000457764 -0.41732463240623474 -0.0 0.0 -0.0 -2.9054994583129883 0.9650753736495972 -0.10300876200199127 -0.0 0.0 -0.0 -10.278595924377441 0.7317469120025635 -0.026285577565431595 -0.0 0.0 -0.0 -2.221662759780884 -0.7335850596427917 0.20831839740276337 -0.0 0.0 -0.0 -53.79469299316406 -20.169893264770508 -13.761110305786133 -0.14934955537319183 8.031173706054688 2.127237319946289 0.7127524614334106 0.828509509563446 -34.526100158691406 -0.0 0.0 -0.0 126.24000549316406 -24.537195205688477 84.44730377197266 10.928735733032227 86.95303344726562 -14.822487831115723 -3.4290246963500977 -7.240680694580078 2.5691354274749756
